<?xml version="1.0" encoding="UTF-8" standalone="no"?>
<svg
   xmlns:dc="http://purl.org/dc/elements/1.1/"
   xmlns:cc="http://creativecommons.org/ns#"
   xmlns:rdf="http://www.w3.org/1999/02/22-rdf-syntax-ns#"
   xmlns:svg="http://www.w3.org/2000/svg"
   xmlns="http://www.w3.org/2000/svg"
   viewBox="0 0 896.01331 896"
   height="896"
   width="896.01331"
   xml:space="preserve"
   id="svg2"
   version="1.1"><metadata
     id="metadata8"><rdf:RDF><cc:Work
         rdf:about=""><dc:format>image/svg+xml</dc:format><dc:type
           rdf:resource="http://purl.org/dc/dcmitype/StillImage" /></cc:Work></rdf:RDF></metadata><defs
     id="defs6" /><g
     transform="matrix(1.3333333,0,0,-1.3333333,0,896)"
     id="g10"><g
       transform="scale(0.1)"
       id="g12"><path
         id="path14"
         style="fill:#2e2d2d;fill-opacity:1;fill-rule:nonzero;stroke:none"
         d="m 2782.88,6300 c 578.79,0 1049.6,-471.2 1049.6,-1050.32 0,-578.84 -470.89,-1049.7 -1049.6,-1049.7 -579.12,0 -1050.42,470.86 -1050.42,1049.7 0,579.12 471.3,1050.32 1050.42,1050.32 z m 0,-2520.02 c 810.32,0 1469.61,659.3 1469.61,1469.7 0,810.76 -659.29,1470.32 -1469.61,1470.32 -810.81,0 -1470.42,-659.56 -1470.42,-1470.32 0,-810.4 659.61,-1469.7 1470.42,-1469.7" /><path
         id="path16"
         style="fill:#2e2d2d;fill-opacity:1;fill-rule:nonzero;stroke:none"
         d="M 4749.64,420 H 605.496 c -46.836,0 -91.769,20.359 -126.586,57.379 -38.066,40.453 -58.961,94.543 -58.906,152.062 0,0 1.305,468.959 2.051,546.639 l -0.59,21.43 c 0.687,14.66 1.64,31.59 1.949,36.45 50.141,606.11 628.486,1147.48 1473.416,1379.22 283.09,77.52 581.09,116.79 885.64,116.79 304.54,0 602.54,-39.27 885.79,-116.69 111.92,-30.66 227.33,35.33 257.94,147.19 30.6,111.88 -35.33,227.34 -147.2,257.94 -319.31,87.32 -654.59,131.57 -996.53,131.57 -342.05,0 -677.3,-44.3 -996.61,-131.72 C 768.766,2739.3 69.6719,2052.59 4.82031,1267.95 c -0.71875,-9.43 -3.5664,-63.21 -4.023435,-80.89 l 0.457035,-39.99 0.58984,-1.75 C 1.05078,1011.71 0,630.57 0,630.211 -0.15625,464.762 61.3203,308.129 173.141,189.441 288.16,67.2695 441.742,0 605.496,0 H 4749.64 c 115.98,0 210,94.0313 210,210 0,115.969 -94.02,210 -210,210" /><path
         id="path18"
         style="fill:#2e2d2d;fill-opacity:1;fill-rule:nonzero;stroke:none"
         d="m 6510.04,2204.97 h -945 v 945.01 c 0,115.96 -94.03,210 -210,210 -115.97,0 -210,-94.04 -210,-210 v -945.01 h -945.01 c -115.97,0 -210.01,-94.04 -210.01,-210 0,-115.98 94.04,-210 210.01,-210 h 945.01 V 839.961 c 0,-115.981 94.03,-210 210,-210 115.97,0 210,94.019 210,210 v 945.009 h 945 c 115.98,0 210.01,94.02 210.01,210 0,115.96 -94.03,210 -210.01,210" /></g></g></svg>