<?xml version="1.0" encoding="UTF-8" standalone="no"?>
<svg
   xmlns:dc="http://purl.org/dc/elements/1.1/"
   xmlns:cc="http://creativecommons.org/ns#"
   xmlns:rdf="http://www.w3.org/1999/02/22-rdf-syntax-ns#"
   xmlns:svg="http://www.w3.org/2000/svg"
   xmlns="http://www.w3.org/2000/svg"
   viewBox="0 0 1333.3333 1333.3333"
   height="1333.3333"
   width="1333.3333"
   xml:space="preserve"
   id="svg2"
   version="1.1"><metadata
     id="metadata8"><rdf:RDF><cc:Work
         rdf:about=""><dc:format>image/svg+xml</dc:format><dc:type
           rdf:resource="http://purl.org/dc/dcmitype/StillImage" /></cc:Work></rdf:RDF></metadata><defs
     id="defs6" /><g
     transform="matrix(1.3333333,0,0,-1.3333333,0,1333.3333)"
     id="g10"><g
       transform="scale(0.1)"
       id="g12"><path
         id="path14"
         style="fill:#100f0d;fill-opacity:1;fill-rule:nonzero;stroke:none"
         d="M 3394.82,5582.85 V 3186.88 c 0,-91.89 74.73,-166.54 166.54,-166.54 h 2881.12 c 91.8,0 166.53,74.65 166.53,166.54 V 5582.85 Z M 6442.48,2687.27 H 3561.36 c -275.51,0 -499.62,224.11 -499.62,499.61 v 2562.51 c 0,92.06 74.57,166.54 166.54,166.54 h 3547.27 c 91.97,0 166.54,-74.48 166.54,-166.54 V 3186.88 c 0,-275.5 -224.11,-499.61 -499.61,-499.61" /><path
         id="path16"
         style="fill:#100f0d;fill-opacity:1;fill-rule:nonzero;stroke:none"
         d="m 3832.56,5915.93 h 2338.71 v 560.45 c 0,644.85 -524.58,1169.35 -1169.35,1169.35 -644.78,0 -1169.36,-524.5 -1169.36,-1169.35 z m 2505.26,-333.08 h -2671.8 c -91.97,0 -166.54,74.48 -166.54,166.54 v 726.99 c 0,828.47 673.97,1502.44 1502.44,1502.44 828.47,0 1502.44,-673.97 1502.44,-1502.44 v -726.99 c 0,-92.06 -74.57,-166.54 -166.54,-166.54" /><path
         id="path18"
         style="fill:#100f0d;fill-opacity:1;fill-rule:nonzero;stroke:none"
         d="m 1495.71,3289.83 c -64,0 -125.07,37.08 -152.55,99.54 -669.254,1520.82 -342.68,3262.5 831.97,4436.89 1558.71,1558.39 4094.87,1558.39 5653.58,0 65.05,-65.05 65.05,-170.44 0,-235.5 -65.06,-65.05 -170.44,-65.05 -235.5,0 -1429.09,1428.77 -3753.98,1428.61 -5182.58,0 C 1333.89,6514.11 1034.56,4917.67 1648.1,3523.38 c 37,-84.08 -1.22,-182.32 -85.39,-219.4 -21.79,-9.6 -44.56,-14.15 -67,-14.15" /><path
         id="path20"
         style="fill:#100f0d;fill-opacity:1;fill-rule:nonzero;stroke:none"
         d="m 5001.92,1004.95 c -1023.72,0 -2047.44,389.51 -2826.79,1168.7 -65.06,65.06 -65.06,170.45 0,235.5 65.05,65.06 170.44,65.06 235.5,0 1428.76,-1428.271 3753.65,-1428.587 5182.58,0 1110.4,1110.32 1389.98,2802.24 695.68,4210.35 -40.66,82.45 -6.75,182.32 75.71,222.97 82.78,40.99 182.4,6.67 223.06,-75.62 757.39,-1536.11 452.45,-3382.04 -758.95,-4593.2 -779.35,-779.19 -1803.08,-1168.7 -2826.79,-1168.7" /><path
         id="path22"
         style="fill:#100f0d;fill-opacity:1;fill-rule:nonzero;stroke:none"
         d="m 7710.96,7541.97 h -588.91 c -91.97,0 -166.54,74.49 -166.54,166.55 0,92.05 74.57,166.54 166.54,166.54 h 422.37 v 422.2 c 0,92.06 74.57,166.54 166.54,166.54 91.97,0 166.54,-74.48 166.54,-166.54 v -588.74 c 0,-92.06 -74.57,-166.55 -166.54,-166.55" /><path
         id="path24"
         style="fill:#100f0d;fill-opacity:1;fill-rule:nonzero;stroke:none"
         d="m 2292.79,1536.12 v 0 c -91.96,0 -166.54,74.65 -166.54,166.54 l 0.08,588.75 c 0,92.05 74.57,166.54 166.55,166.54 h 588.9 c 91.97,0 166.55,-74.49 166.55,-166.54 0,-92.05 -74.58,-166.55 -166.55,-166.55 h -422.37 l -0.07,-422.2 c 0,-92.05 -74.57,-166.54 -166.55,-166.54" /><path
         id="path26"
         style="fill:#100f0d;fill-opacity:1;fill-rule:nonzero;stroke:none"
         d="m 5001.92,4648.17 c -91.81,0 -166.54,-74.64 -166.54,-166.54 0,-91.88 74.73,-166.53 166.54,-166.53 91.81,0 166.54,74.65 166.54,166.53 0,91.9 -74.73,166.54 -166.54,166.54 z m 0,-666.16 c -275.51,0 -499.63,224.12 -499.63,499.62 0,275.51 224.12,499.63 499.63,499.63 275.51,0 499.62,-224.12 499.62,-499.63 0,-275.5 -224.11,-499.62 -499.62,-499.62" /><path
         id="path28"
         style="fill:#100f0d;fill-opacity:1;fill-rule:nonzero;stroke:none"
         d="m 5001.92,3519.96 c -91.97,0 -166.54,74.49 -166.54,166.54 v 462.05 c 0,92.06 74.57,166.55 166.54,166.55 91.97,0 166.54,-74.49 166.54,-166.55 V 3686.5 c 0,-92.05 -74.57,-166.54 -166.54,-166.54" /></g></g></svg>