<?xml version="1.0" encoding="UTF-8" standalone="no"?>
<svg
   xmlns:dc="http://purl.org/dc/elements/1.1/"
   xmlns:cc="http://creativecommons.org/ns#"
   xmlns:rdf="http://www.w3.org/1999/02/22-rdf-syntax-ns#"
   xmlns:svg="http://www.w3.org/2000/svg"
   xmlns="http://www.w3.org/2000/svg"
   viewBox="0 0 2700.0532 2700"
   height="2700"
   width="2700.0532"
   xml:space="preserve"
   id="svg2"
   version="1.1"><metadata
     id="metadata8"><rdf:RDF><cc:Work
         rdf:about=""><dc:format>image/svg+xml</dc:format><dc:type
           rdf:resource="http://purl.org/dc/dcmitype/StillImage" /></cc:Work></rdf:RDF></metadata><defs
     id="defs6" /><g
     transform="matrix(1.3333333,0,0,-1.3333333,0,2700)"
     id="g10"><g
       transform="scale(0.1)"
       id="g12"><g
         transform="scale(1.24233)"
         id="g14"><path
           id="path16"
           style="fill:#ffffff;fill-opacity:1;fill-rule:nonzero;stroke:none"
           d="M 16300.3,0 H 0.33015 V 16300 H 16300.3 V 0" /></g><g
         transform="scale(1.24233)"
         id="g18"><path
           id="path20"
           style="fill:#ffffff;fill-opacity:1;fill-rule:nonzero;stroke:none"
           d="M 16300,0 H 0 V 16300 H 16300 V 0" /></g><path
         id="path22"
         style="fill:#3e3e3e;fill-opacity:1;fill-rule:nonzero;stroke:none"
         d="m 12277.8,10921.3 v 213.9 c 0.1,184.4 -39.3,355.7 -111,508.4 -53.7,114.6 -125.2,218.6 -210.1,311.5 -127.4,139.4 -284.5,254.1 -460.3,346.6 -175.8,92.5 -370.6,162.9 -575.6,213 -35.9,8.8 -73.3,4.3 -106.1,-12.8 -206.9,-107.6 -440.7,-168.1 -689.3,-168.2 -248.55,0.1 -482.35,60.6 -689.3,168.2 -32.82,17.1 -70.14,21.6 -106.07,12.8 -182.26,-44.5 -356.36,-105.1 -516.32,-183 -119.94,-58.4 -231.95,-126.5 -333.07,-205.1 -75.82,-59 -145.51,-123.9 -207.48,-195 -92.95,-106.5 -168.49,-227.2 -220.34,-360.9 -51.92,-133.6 -79.85,-280 -79.78,-435.5 v -213.9 h 303.75 v 213.9 c 0.13,141.8 29.38,266.4 82.26,379.5 39.75,84.7 93.17,163.1 159.31,235.5 99.12,108.6 227.27,203.7 377.49,282.7 150.12,79 322.01,141.8 506.2,186.7 l -36.01,147.6 -70.07,-134.8 c 248.68,-129.4 531.25,-202.5 829.43,-202.4 298.2,-0.1 580.8,73 829.5,202.4 l -70.1,134.8 -36,-147.6 c 163.7,-39.9 317.7,-94 455.3,-161 103.3,-50.2 197.3,-107.8 279.6,-171.8 61.8,-48.1 117,-99.7 165,-154.8 72.1,-82.7 127.9,-172.7 166.1,-271.2 38.2,-98.6 59.2,-206 59.2,-325.6 v -213.9 h 303.8" /><path
         id="path24"
         style="fill:#3e3e3e;fill-opacity:1;fill-rule:nonzero;stroke:none"
         d="m 10125.6,14886.3 v 151.9 c -165.33,0 -323.65,-33.6 -467.39,-94.5 -215.68,-91.3 -398.74,-243.4 -528.23,-435 -129.5,-191.5 -205.33,-423.3 -205.27,-671.4 -0.02,-165.3 33.55,-323.6 94.33,-467.2 91.18,-215.5 243.19,-398.4 434.79,-527.7 191.49,-129.2 423.42,-204.8 671.77,-204.8 165.5,0 323.9,33.6 467.7,94.3 215.8,91.1 398.8,242.9 528.2,434.3 129.4,191.3 205.1,423 205,671.1 0,165.3 -33.6,323.6 -94.5,467.4 -91.3,215.7 -243.4,398.7 -434.9,528.2 -191.5,129.5 -423.4,205.4 -671.5,205.3 v -151.9 -151.9 c 124.2,0 241.8,-25.1 349,-70.4 160.8,-68 298.2,-182.1 395,-325.3 48.4,-71.7 86.7,-150.6 112.8,-234.7 26.2,-84.2 40.4,-173.6 40.4,-266.7 -0.1,-124.3 -25.1,-241.8 -70.4,-348.9 -67.8,-160.6 -181.6,-297.6 -324.9,-394.2 -71.5,-48.3 -150.4,-86.4 -234.7,-112.6 -84.2,-26.1 -173.8,-40.2 -267.2,-40.2 -124.5,0 -242.29,25.1 -349.58,70.3 -160.86,67.9 -298.01,181.6 -394.65,324.6 -48.33,71.5 -86.53,150.3 -112.66,234.3 -26.13,84.1 -40.24,173.5 -40.25,266.7 0.02,124.2 25.11,241.8 70.47,349 68.01,160.8 182.03,298.1 325.32,395 71.63,48.4 150.51,86.6 234.65,112.8 84.16,26.2 173.6,40.3 266.7,40.3 v 151.9" /><path
         id="path26"
         style="fill:#3e3e3e;fill-opacity:1;fill-rule:nonzero;stroke:none"
         d="m 6621.22,7449.6 c -331.28,-87.5 -721.02,-138.8 -1136.11,-138.8 -415.09,0 -804.82,51.3 -1136.09,138.8 l -38.76,-146.9 151.34,12.8 -70.52,839.7 -302.68,-25.4 70.51,-839.8 c 5.38,-63.9 50.51,-117.7 112.59,-134.1 359.51,-94.8 773.52,-148.8 1213.61,-148.8 440.09,0 854.11,54 1213.62,148.8 l -77.51,293.7" /><path
         id="path28"
         style="fill:#3e3e3e;fill-opacity:1;fill-rule:nonzero;stroke:none"
         d="m 7092.93,9318.6 c -114.74,84.1 -242.31,155.6 -378.86,215.3 -136.56,59.8 -282.15,107.8 -433.37,144.7 -35.94,8.8 -73.26,4.3 -106.08,-12.8 -206.95,-107.5 -440.74,-168.1 -689.3,-168.1 -248.57,0 -482.36,60.6 -689.31,168.1 -32.82,17.1 -70.14,21.6 -106.08,12.8 -182.26,-44.5 -356.36,-105.1 -516.31,-182.9 -119.95,-58.5 -231.96,-126.6 -333.08,-205.2 -75.82,-59 -145.51,-123.9 -207.48,-194.9 -92.95,-106.6 -168.49,-227.3 -220.34,-361 -51.92,-133.6 -79.84,-279.9 -79.78,-435.5 v -631.8 c 0,-48.2 23.33,-94.2 62.26,-122.6 131.98,-96.4 288.38,-180.6 464.87,-252.6 l 114.57,281.3 c -157.63,64.2 -292.83,138 -400.2,216.5 l -89.62,-122.6 h 151.87 v 631.8 c 0.13,141.8 29.38,266.4 82.26,379.5 39.75,84.8 93.17,163.1 159.32,235.6 99.12,108.6 227.26,203.6 377.48,282.6 150.12,79 322.02,141.8 506.2,186.8 l -36.01,147.5 -70.07,-134.7 c 248.68,-129.4 531.25,-202.5 829.45,-202.5 298.19,0 580.76,73.1 829.44,202.5 l -70.07,134.7 -36.01,-147.5 c 135.82,-33.2 264.98,-76 383.63,-127.9 118.67,-51.9 226.78,-112.9 320.93,-182 l 179.69,244.9" /><path
         id="path30"
         style="fill:#3e3e3e;fill-opacity:1;fill-rule:nonzero;stroke:none"
         d="m 5485.11,12050.3 v -151.9 c 124.2,0 241.78,-25.1 349.03,-70.5 160.79,-68 298.13,-182 394.93,-325.3 48.41,-71.6 86.69,-150.5 112.87,-234.7 26.19,-84.1 40.32,-173.5 40.33,-266.7 -0.02,-124.3 -25.07,-241.8 -70.34,-348.8 -67.88,-160.6 -181.67,-297.6 -324.89,-394.2 -71.59,-48.3 -150.48,-86.5 -234.7,-112.6 -84.24,-26.1 -173.8,-40.3 -267.23,-40.3 -124.55,0.1 -242.31,25.1 -349.6,70.4 -160.85,67.8 -298,181.5 -394.64,324.6 -48.32,71.5 -86.52,150.2 -112.66,234.3 -26.13,84 -40.24,173.4 -40.25,266.6 0.02,124.2 25.11,241.8 70.47,349.1 68.01,160.8 182.03,298.1 325.32,394.9 71.63,48.4 150.51,86.7 234.65,112.9 84.15,26.2 173.55,40.3 266.71,40.3 v 151.9 151.8 c -165.34,0.1 -323.66,-33.6 -467.4,-94.4 -215.68,-91.4 -398.74,-243.5 -528.23,-435 -129.5,-191.5 -205.33,-423.4 -205.27,-671.5 -0.02,-165.3 33.55,-323.5 94.33,-467.2 91.18,-215.5 243.19,-398.4 434.78,-527.6 191.5,-129.3 423.42,-204.9 671.79,-204.8 165.51,0 323.92,33.5 467.71,94.2 215.76,91.1 398.8,243 528.2,434.4 129.4,191.2 205.06,423 205,671 0.02,165.4 -33.63,323.7 -94.49,467.4 -91.3,215.7 -243.4,398.8 -434.98,528.3 -191.47,129.5 -423.32,205.3 -671.44,205.2 v -151.8" /><path
         id="path32"
         style="fill:#3e3e3e;fill-opacity:1;fill-rule:nonzero;stroke:none"
         d="m 13552.1,7155.9 c 359.5,-94.8 773.5,-148.8 1213.6,-148.8 440.1,0 854.1,54 1213.6,148.8 62.1,16.4 107.2,70.2 112.6,134.1 l 70.5,839.8 -302.7,25.4 -70.5,-839.7 151.4,-12.8 -38.8,146.9 c -331.3,-87.5 -721,-138.8 -1136.1,-138.8 -415.1,0 -804.8,51.3 -1136.1,138.8 l -77.5,-293.7" /><g
         transform="scale(1.03791)"
         id="g34"><path
           id="path36"
           style="fill:#3e3e3e;fill-opacity:1;fill-rule:nonzero;stroke:none"
           d="m 12850.4,8742.24 c 90.7,66.58 194.8,125.35 309.2,175.36 114.3,50 238.7,91.24 369.6,123.23 l -34.7,142.11 -67.5,-129.78 c 239.5,-124.68 511.8,-195.1 799.1,-195.1 287.3,0 559.6,70.42 799.2,195.1 l -67.5,129.78 -34.7,-142.11 c 157.7,-38.54 306.1,-90.57 438.7,-155.12 99.5,-48.47 190.1,-103.87 269.4,-165.63 59.5,-46.24 112.7,-96.05 158.9,-149.14 69.5,-79.58 123.3,-166.29 160.1,-261.2 36.8,-95 57,-198.47 57,-313.8 v -608.72 h 146.4 l -86.4,118.12 c -103.5,-75.63 -233.7,-146.73 -385.6,-208.49 l 110.5,-271.12 c 169.9,69.37 320.6,150.49 447.8,243.37 37.6,27.36 60,71.68 60,118.12 v 608.72 c 0.1,177.66 -37.9,342.81 -106.9,489.93 -51.8,110.31 -120.7,210.52 -202.5,300.02 -122.7,134.4 -274.1,244.82 -443.5,333.94 -169.3,89.12 -357,157.05 -554.5,205.22 -34.6,8.48 -70.6,4.14 -102.3,-12.33 -199.3,-103.58 -424.6,-161.96 -664.1,-161.96 -239.5,0 -464.7,58.38 -664.1,161.96 -31.6,16.47 -67.5,20.81 -102.2,12.33 -145.7,-35.55 -286,-81.8 -417.5,-139.41 -131.6,-57.53 -254.5,-126.41 -365,-207.44 l 173.1,-235.96" /></g><path
         id="path38"
         style="fill:#3e3e3e;fill-opacity:1;fill-rule:nonzero;stroke:none"
         d="m 14765.7,12050.3 v 151.8 c -165.3,0.1 -323.7,-33.6 -467.4,-94.4 -215.7,-91.3 -398.7,-243.5 -528.2,-435 -129.5,-191.5 -205.4,-423.4 -205.3,-671.5 0,-165.3 33.6,-323.5 94.3,-467.2 91.2,-215.5 243.2,-398.4 434.8,-527.6 191.5,-129.3 423.4,-204.9 671.8,-204.8 165.5,0 323.9,33.5 467.7,94.2 215.8,91.1 398.8,243 528.2,434.4 129.4,191.2 205.1,423 205,671 0,165.4 -33.6,323.7 -94.5,467.4 -91.3,215.7 -243.4,398.8 -435,528.3 -191.4,129.5 -423.3,205.3 -671.4,205.2 v -151.8 -151.9 c 124.2,0 241.8,-25.1 349,-70.5 160.8,-68 298.2,-182 395,-325.3 48.4,-71.6 86.7,-150.5 112.8,-234.7 26.2,-84.1 40.4,-173.5 40.4,-266.7 -0.1,-124.3 -25.1,-241.8 -70.4,-348.8 -67.9,-160.6 -181.6,-297.6 -324.9,-394.2 -71.6,-48.3 -150.4,-86.5 -234.7,-112.6 -84.2,-26.1 -173.8,-40.3 -267.2,-40.3 -124.5,0.1 -242.3,25.1 -349.6,70.4 -160.8,67.8 -298,181.5 -394.6,324.6 -48.4,71.5 -86.6,150.2 -112.7,234.3 -26.1,84 -40.2,173.4 -40.2,266.6 0,124.2 25.1,241.8 70.4,349.1 68,160.8 182.1,298.1 325.3,394.9 71.7,48.4 150.6,86.7 234.7,112.9 84.2,26.2 173.5,40.3 266.7,40.3 v 151.9" /><path
         id="path40"
         style="fill:#3e3e3e;fill-opacity:1;fill-rule:nonzero;stroke:none"
         d="m 12904.2,8142.5 h -151.9 c 0,-363.1 -73.5,-708.3 -206.3,-1022.5 -199.3,-471.2 -532.6,-872.6 -951.9,-1155.9 -419.5,-283.3 -924.1,-448.5 -1468.7,-448.5 -363.11,0 -708.26,73.5 -1022.46,206.3 -471.23,199.3 -872.64,532.6 -1155.91,952 -283.27,419.4 -448.49,924 -448.55,1468.6 0.02,363.1 73.51,708.3 206.37,1022.5 199.28,471.2 532.58,872.6 951.92,1155.9 419.45,283.2 924.06,448.5 1468.63,448.5 363.1,0 708.3,-73.5 1022.5,-206.3 471.2,-199.3 872.6,-532.6 1155.9,-952 283.3,-419.4 448.5,-924 448.5,-1468.6 h 151.9 151.9 c 0,404.2 -82,790.1 -230.4,1140.8 -222.5,526.1 -593.9,973.3 -1061.6,1289.3 -467.6,316 -1032.2,500.7 -1638.7,500.6 -404.21,0 -790.09,-82 -1140.79,-230.4 -526.13,-222.6 -973.3,-594 -1289.28,-1061.6 -315.98,-467.6 -500.66,-1032.3 -500.6,-1638.7 -0.02,-404.2 82.01,-790.1 230.37,-1140.8 222.57,-526.1 593.97,-973.3 1061.63,-1289.3 467.56,-316 1032.24,-500.7 1638.67,-500.6 404.2,0 790.1,82 1140.8,230.4 526.1,222.5 973.3,594 1289.3,1061.6 316,467.6 500.7,1032.3 500.6,1638.7 h -151.9" /><path
         id="path42"
         style="fill:#3e3e3e;fill-opacity:1;fill-rule:nonzero;stroke:none"
         d="m 8649.16,7990.6 h 2952.54 v 303.797 H 8649.16 Z" /><path
         id="path44"
         style="fill:#3e3e3e;fill-opacity:1;fill-rule:nonzero;stroke:none"
         d="m 9973.54,6666.2 h 303.762 V 9618.7 H 9973.54 Z" /></g></g></svg>