<?xml version="1.0" encoding="UTF-8" standalone="no"?>
<svg
   xmlns:dc="http://purl.org/dc/elements/1.1/"
   xmlns:cc="http://creativecommons.org/ns#"
   xmlns:rdf="http://www.w3.org/1999/02/22-rdf-syntax-ns#"
   xmlns:svg="http://www.w3.org/2000/svg"
   xmlns="http://www.w3.org/2000/svg"
   viewBox="0 0 3005.3333 3145.3601"
   height="3145.3601"
   width="3005.3333"
   xml:space="preserve"
   id="svg2"
   version="1.1"><metadata
     id="metadata8"><rdf:RDF><cc:Work
         rdf:about=""><dc:format>image/svg+xml</dc:format><dc:type
           rdf:resource="http://purl.org/dc/dcmitype/StillImage" /></cc:Work></rdf:RDF></metadata><defs
     id="defs6" /><g
     transform="matrix(1.3333333,0,0,-1.3333333,0,3145.36)"
     id="g10"><g
       transform="scale(0.1)"
       id="g12"><g
         transform="scale(1.44724)"
         id="g14"><path
           id="path16"
           style="fill:#000000;fill-opacity:1;fill-rule:nonzero;stroke:none"
           d="m 4001,14223.2 c 1047.65,919 2389.38,1415.3 3767.86,1415.3 v 0 c 1396.87,0 2738.64,-514.7 3786.24,-1433.7 55.1,-55.1 147,-91.9 220.6,-91.9 91.9,0 183.8,36.8 257.3,110.3 128.6,147.1 110.3,349.2 -36.8,477.9 -1176.3,1029.3 -2665.06,1599 -4227.34,1599 v 0 c -1543.9,0 -3051.05,-569.7 -4227.36,-1599 -147.04,-128.7 -147.04,-330.8 -36.76,-477.9 147.04,-110.3 349.22,-128.6 496.26,0" /></g><g
         transform="scale(1.28406)"
         id="g18"><path
           id="path20"
           style="fill:#000000;fill-opacity:1;fill-rule:nonzero;stroke:none"
           d="m 11469.9,14518.5 c 103.5,0 207.1,41.4 290,124.3 145,165.7 124.3,393.6 -41.5,538.6 -828.6,725 -1864.35,1118.6 -2962.28,1118.6 v 0 c -1077.2,0 -2133.69,-393.6 -2962.31,-1118.6 -165.73,-145 -165.73,-372.9 -41.43,-538.6 145,-165.8 372.87,-165.8 538.6,-41.5 683.61,600.8 1553.66,932.2 2444.43,932.2 v 0 c 890.77,0 1781.49,-331.4 2465.19,-932.2 103.5,-41.4 186.4,-82.8 269.3,-82.8" /></g><g
         transform="scale(1.14209)"
         id="g22"><path
           id="path24"
           style="fill:#000000;fill-opacity:1;fill-rule:nonzero;stroke:none"
           d="m 11381.8,15135.5 c 163,186.3 139.8,442.5 -46.6,605.5 -419.2,372.7 -954.9,559 -1490.58,559 -535.69,0 -1071.37,-209.6 -1490.61,-559 -186.32,-163 -186.32,-419.2 -46.58,-605.5 93.16,-93.2 209.62,-139.8 326.07,-139.8 93.17,0 209.62,23.3 279.49,116.5 186.32,163 512.4,349.3 931.63,349.3 419.28,0 745.28,-186.3 931.58,-349.3 186.4,-186.4 465.9,-163.1 605.6,23.3" /></g><g
         transform="scale(1.38282)"
         id="g26"><path
           id="path28"
           style="fill:#000000;fill-opacity:1;fill-rule:nonzero;stroke:none"
           d="m 15569,1461.94 h -5264.6 c -96.1,0 -192.3,-38.47 -250,-96.18 L 9361.87,673.261 H 6899.66 l -692.5,692.499 c -57.71,57.71 -153.89,96.18 -250.07,96.18 H 692.495 V 9752.38 H 1134.92 V 2289.09 c 0,-192.36 153.89,-346.25 346.25,-346.25 h 4706.76 c 19.23,0 981.03,-57.71 981.03,-538.61 0,-192.36 153.89,-346.25 346.25,-346.25 h 596.32 596.32 c 192.36,0 346.24,153.89 346.24,346.25 0,500.14 961.81,538.61 961.81,538.61 h 4706.7 c 192.4,0 346.3,153.89 346.3,346.25 v 7463.29 h 442.4 V 1461.94 Z M 1865.89,11156.6 h 4610.58 c 1019.51,0 1269.58,-1269.57 1308.05,-1461.93 V 1885.13 c -288.54,557.84 -1057.98,750.2 -1558.12,769.44 H 1865.89 Z m 7938.41,0 h 4610.6 V 2635.33 H 10035.1 C 9534.99,2616.1 8765.55,2423.74 8477.01,1846.66 v 7848.01 c 38.48,173.12 307.78,1461.93 1327.29,1461.93 z m 6130.2,-692.5 h -807.9 v 1058 c 0,192.4 -153.9,346.2 -346.2,346.2 H 9804.3 c -827.15,0 -1346.52,-500.1 -1654.3,-1077.2 -327.01,557.9 -846.38,1077.2 -1673.53,1077.2 H 1500.41 c -192.36,0 -346.25,-153.8 -346.25,-346.2 v -1058 H 346.249 C 153.886,10464.1 0,10310.2 0,10117.9 V 1134.92 C 0,942.567 153.886,788.678 346.249,788.678 H 5822.44 L 6514.94,96.1801 C 6572.65,38.4715 6668.83,0 6765.01,0 h 2769.98 c 96.18,0 192.36,38.4715 250.07,96.1801 l 692.54,692.4979 h 5476.2 c 192.3,0 346.2,153.889 346.2,346.242 v 8963.68 c -19.2,192.4 -173.1,365.5 -365.5,365.5" /></g><g
         transform="scale(1.13027)"
         id="g30"><path
           id="path32"
           style="fill:#000000;fill-opacity:1;fill-rule:nonzero;stroke:none"
           d="m 16276.5,10354.7 c 0,235.3 -188.3,423.6 -423.7,423.6 h -3326.9 c -235.4,0 -423.7,-188.3 -423.7,-423.6 0,-235.3 188.3,-423.62 423.7,-423.62 h 3326.9 c 235.4,0 447.2,211.82 423.7,423.62" /></g><g
         transform="scale(1.05983)"
         id="g34"><path
           id="path36"
           style="fill:#000000;fill-opacity:1;fill-rule:nonzero;stroke:none"
           d="M 15848.2,9637.41 H 12439 c -251,0 -451.8,-200.79 -451.8,-451.77 0,-250.98 200.8,-451.77 451.8,-451.77 h 3409.2 c 251,0 451.8,200.79 451.8,451.77 0,250.98 -200.8,451.77 -451.8,451.77" /></g><g
         transform="scale(1.12374)"
         id="g38"><path
           id="path40"
           style="fill:#000000;fill-opacity:1;fill-rule:nonzero;stroke:none"
           d="m 12172.5,6769.52 c 0,-236.71 189.4,-426.07 426.1,-426.07 h 3275.3 c 236.7,0 426.1,189.36 426.1,426.07 0,236.71 -189.4,426.08 -426.1,426.08 h -3275.3 c -236.7,0 -426.1,-189.37 -426.1,-426.08" /></g><path
         id="path42"
         style="fill:#000000;fill-opacity:1;fill-rule:nonzero;stroke:none"
         d="m 4620,11224.8 h 3670.4 c 266,0 478.8,212.8 478.8,478.8 0,266 -212.8,478.8 -478.8,478.8 H 4620 c -266,0 -478.8,-212.8 -478.8,-478.8 0,-239.4 212.8,-478.8 478.8,-478.8" /><path
         id="path44"
         style="fill:#000000;fill-opacity:1;fill-rule:nonzero;stroke:none"
         d="m 5262.8,9735.2 c 0,-266 212.8,-478.8 478.8,-478.8 h 3613.2 c 266,0 478.8,212.8 478.8,478.8 0,266 -212.8,478.8 -478.8,478.8 H 5741.6 c -266,0 -478.8,-212.8 -478.8,-478.8" /><g
         transform="scale(1.05983)"
         id="g46"><path
           id="path48"
           style="fill:#000000;fill-opacity:1;fill-rule:nonzero;stroke:none"
           d="M 15848.2,5495.23 H 12439 c -251,0 -451.8,-200.79 -451.8,-451.77 0,-250.99 200.8,-451.77 451.8,-451.77 h 3409.2 c 251,0 451.8,200.78 451.8,451.77 0,250.98 -200.8,451.77 -451.8,451.77" /></g><path
         id="path50"
         style="fill:#000000;fill-opacity:1;fill-rule:nonzero;stroke:none"
         d="m 5262.8,5345.2 c 0,-266 212.8,-478.8 478.8,-478.8 h 3613.2 c 266,0 478.8,212.8 478.8,478.8 0,266 -212.8,478.8 -478.8,478.8 H 5741.6 c -266,0 -478.8,-212.8 -478.8,-478.8" /><path
         id="path52"
         style="fill:#000000;fill-opacity:1;fill-rule:nonzero;stroke:none"
         d="M 8200.4,8086 H 4699.8 c -266,0 -478.8,-212.8 -478.8,-478.8 0,-266 212.8,-478.8 478.8,-478.8 h 3500.6 c 266,0 478.8,212.8 478.8,478.8 0,266 -212.8,478.8 -478.8,478.8" /></g></g></svg>