<?xml version="1.0" encoding="UTF-8" standalone="no"?>
<!-- Generator: Adobe Illustrator 24.3.0, SVG Export Plug-In . SVG Version: 6.00 Build 0)  -->

<svg
   xmlns:dc="http://purl.org/dc/elements/1.1/"
   xmlns:cc="http://creativecommons.org/ns#"
   xmlns:rdf="http://www.w3.org/1999/02/22-rdf-syntax-ns#"
   xmlns:svg="http://www.w3.org/2000/svg"
   xmlns="http://www.w3.org/2000/svg"
   xmlns:xlink="http://www.w3.org/1999/xlink"
   xmlns:sodipodi="http://sodipodi.sourceforge.net/DTD/sodipodi-0.dtd"
   xmlns:inkscape="http://www.inkscape.org/namespaces/inkscape"
   version="1.1"
   x="0px"
   y="0px"
   viewBox="0 0 1800 344.2258"
   xml:space="preserve"
   id="svg976"
   sodipodi:docname="logo-text2.svg"
   inkscape:version="0.92.5 (2060ec1f9f, 2020-04-08)"
   width="1800"
   height="344.2258"><metadata
   id="metadata982"><rdf:RDF><cc:Work
       rdf:about=""><dc:format>image/svg+xml</dc:format><dc:type
         rdf:resource="http://purl.org/dc/dcmitype/StillImage" /><dc:title></dc:title></cc:Work></rdf:RDF></metadata><defs
   id="defs980"><linearGradient
     inkscape:collect="always"
     id="linearGradient2779"><stop
       style="stop-color:#0f1e16;stop-opacity:1;"
       offset="0"
       id="stop2775" /><stop
       style="stop-color:#0f1e16;stop-opacity:0;"
       offset="1"
       id="stop2777" /></linearGradient><linearGradient
     inkscape:collect="always"
     xlink:href="#linearGradient2779"
     id="linearGradient2781"
     x1="9.961071"
     y1="171.37749"
     x2="369.99396"
     y2="171.37749"
     gradientUnits="userSpaceOnUse" /></defs><sodipodi:namedview
   pagecolor="#ffffff"
   bordercolor="#666666"
   borderopacity="1"
   objecttolerance="10"
   gridtolerance="10"
   guidetolerance="10"
   inkscape:pageopacity="0"
   inkscape:pageshadow="2"
   inkscape:window-width="2488"
   inkscape:window-height="1376"
   id="namedview978"
   showgrid="false"
   inkscape:zoom="0.8439228"
   inkscape:cx="924.88859"
   inkscape:cy="59.787496"
   inkscape:window-x="72"
   inkscape:window-y="27"
   inkscape:window-maximized="1"
   inkscape:current-layer="svg976"
   width="34"
   showguides="false" />
<style
   type="text/css"
   id="style936">
	.st0{fill-rule:evenodd;clip-rule:evenodd;fill:#FFFFFF;}
	.st1{fill-rule:evenodd;clip-rule:evenodd;fill:#EF7D00;}
	.st2{fill-rule:evenodd;clip-rule:evenodd;fill:#9D9D9C;}
	.st3{fill-rule:evenodd;clip-rule:evenodd;fill:#007B55;}
</style>
<g
   id="Guides_For_Artboard">
</g>
<g
   id="Layer_1">
	<rect
   x="890.64117"
   y="699.96167"
   class="st0"
   width="1199.9996"
   height="720"
   id="rect939"
   style="clip-rule:evenodd;fill:#ffffff;fill-rule:evenodd" />
	<g
   id="g943"
   transform="translate(-140,206)">
		<path
   class="st1"
   d="m 1216.0067,355.212 c 1.4879,8.337 -0.9845,17.2494 -7.4268,23.6886 -10.4613,10.4658 -27.4309,10.4666 -37.8914,0 -10.4626,-10.4604 -10.4635,-27.428 0,-37.8907 6.4369,-6.4369 15.344,-8.9121 23.6755,-7.4288 17.14,1.2388 32.1265,-13.7182 30.9089,-30.8625 -1.5001,-8.3432 0.9729,-17.2661 7.4207,-23.7138 10.4642,-10.4635 27.4303,-10.4635 37.8906,0 10.4644,10.4627 10.4636,27.4278 0,37.8913 -6.45,6.4531 -15.3783,8.9229 -23.729,7.4206 -17.1283,-1.2099 -32.0805,13.7693 -30.8485,30.8953 z"
   id="path941"
   inkscape:connector-curvature="0"
   style="clip-rule:evenodd;fill:#ef7d00;fill-rule:evenodd" />
	</g>
	<path
   class="st1"
   d="m 1098.6945,677.025 c 6.4392,-6.4395 15.3408,-8.9124 23.675,-7.4231 17.132,1.2337 32.1042,-13.7049 30.9089,-30.8387 -0.5724,-3.1663 -0.5729,-6.4102 0,-9.5737 1.2076,-17.1343 -13.7554,-32.0805 -30.8896,-30.8517 -8.3372,1.4919 -17.2465,-0.9865 -23.6919,-7.4319 -10.4634,-10.4604 -10.4634,-27.4303 0,-37.8907 10.4642,-10.4635 27.4303,-10.4635 37.8906,0 6.4491,6.4446 8.9207,15.3652 7.4237,23.7056 -1.2167,17.128 13.7318,32.0989 30.8684,30.8783 8.3463,-1.4969 17.2655,0.9729 23.7163,7.4206 10.4611,10.4635 10.4604,27.4309 0,37.8944 -6.4521,6.4499 -15.3822,8.92 -23.7299,7.4177 -17.1315,-1.207 -32.0883,13.7744 -30.8549,30.9058 1.4865,8.3347 -0.9806,17.2418 -7.4237,23.681 -10.459,10.4635 -27.4271,10.4635 -37.8906,0 -10.4633,-10.4627 -10.4633,-27.4303 9e-4,-37.8936 z"
   id="path945"
   inkscape:connector-curvature="0"
   style="clip-rule:evenodd;fill:#ef7d00;fill-rule:evenodd" />
	<path
   class="st2"
   d="m 1146.699,495.0099 c 10.4635,-10.4633 27.4303,-10.4633 37.8938,0 10.4611,10.4627 10.4604,27.4303 0,37.8907 -10.463,10.4658 -27.431,10.4666 -37.8938,0 -10.4635,-10.4604 -10.4635,-27.428 0,-37.8907 z m -124.0098,124.0106 c 10.4604,-10.4612 27.4294,-10.4612 37.8907,-8e-4 10.4626,10.4635 10.4626,27.4309 0,37.8944 -10.4613,10.4604 -27.4309,10.4604 -37.8914,0 -10.4626,-10.4635 -10.4635,-27.4309 0,-37.8944 z m -24.1146,-62.0053 c 10.4635,10.4604 10.4635,27.4303 0,37.8907 -10.4603,10.4635 -27.4277,10.4635 -37.8912,0 -10.4628,-10.4604 -10.4628,-27.4303 0,-37.8907 10.4643,-10.4635 27.4309,-10.4635 37.8912,0 z m 248.0232,0 c 10.4636,10.4604 10.4628,27.4303 0,37.8907 -10.4648,10.4635 -27.4308,10.4635 -37.8934,0 -10.4604,-10.4604 -10.4613,-27.4303 0,-37.8907 10.4626,-10.4635 27.4276,-10.4635 37.8934,0 z"
   id="path947"
   inkscape:connector-curvature="0"
   style="clip-rule:evenodd;fill:#9d9d9c;fill-rule:evenodd" />
	<g
   id="g973">
		<g
   id="g951">
			<path
   class="st3"
   d="M 90.2565,153.5632 C 107.6181,189.3691 65.042,228.3738 30.6801,206.9299 10.7907,195.1041 4.2533,169.3822 16.0852,149.4905 23.3637,137.2528 35.9131,130.0694 49.1147,129.1086 75.5755,124.384 92.5328,95.9368 84.083,70.4157 78.595,58.3456 78.9068,43.8662 86.1975,31.608 98.0302,11.7148 123.75,5.1793 143.6383,17.0121 c 19.8938,11.8301 26.4278,37.5488 14.5962,57.4418 -7.2921,12.2673 -19.8757,19.4507 -33.1139,20.39 -26.4321,4.7639 -43.3289,33.2316 -34.8641,58.7193 z"
   id="path949"
   style="clip-rule:evenodd;fill:#007b55;fill-opacity:1;fill-rule:evenodd"
   inkscape:connector-curvature="0" />
		</g>
		<g
   id="g955">
			<path
   class="st3"
   d="m 296.2567,273.6735 c 17.3615,35.8058 -25.2145,74.8106 -59.5764,53.3666 -19.8894,-11.8258 -26.4268,-37.5477 -14.5949,-57.4394 7.2785,-12.2376 19.8279,-19.4211 33.0295,-20.3818 26.4608,-4.7245 43.4181,-33.1718 34.9682,-58.6929 -5.488,-12.0701 -5.1762,-26.5495 2.1145,-38.8077 11.8328,-19.8932 37.5526,-26.4287 57.4408,-14.5959 19.8938,11.8301 26.4278,37.5488 14.5962,57.4418 -7.2921,12.2673 -19.8757,19.4507 -33.1139,20.39 -26.432,4.7638 -43.3289,33.2315 -34.864,58.7193 z"
   id="path953"
   style="clip-rule:evenodd;fill:#007b55;fill-opacity:1;fill-rule:evenodd"
   inkscape:connector-curvature="0" />
		</g>
		<g
   id="g959">
			<path
   class="st3"
   d="m 122.7262,249.3091 c 39.6896,2.8674 52.1806,59.2417 16.4286,78.278 -20.1862,11.3119 -45.7307,4.1124 -57.0414,-16.0802 -6.9589,-12.4222 -6.9052,-26.882 -1.1365,-38.7953 9.1388,-25.278 -7.0185,-54.1871 -33.3454,-59.6298 -13.197,-1.2823 -25.5807,-8.792 -32.5512,-21.2351 -11.3116,-20.1941 -4.1116,-45.7359 16.08,-57.0432 20.1921,-11.3135 45.7321,-4.1127 57.0441,16.0802 6.9777,12.4488 6.9069,26.9382 1.1013,38.8725 -9.0903,25.2728 7.115,54.1397 33.4205,59.5529 z"
   id="path957"
   style="clip-rule:evenodd;fill:#007b55;fill-opacity:1;fill-rule:evenodd"
   inkscape:connector-curvature="0" />
		</g>
		<g
   id="g963">
			<path
   class="st3"
   d="m 193.7251,129.1989 c 39.6895,2.8674 52.1806,59.2417 16.4286,78.278 -20.1862,11.3118 -45.7307,4.1124 -57.0414,-16.0802 -6.9589,-12.4222 -6.9052,-26.882 -1.1365,-38.7953 9.1388,-25.278 -7.0185,-54.1871 -33.3454,-59.6298 -13.197,-1.2823 -25.5807,-8.792 -32.5512,-21.2351 -11.3116,-20.1941 -4.1116,-45.7359 16.08,-57.0432 20.1921,-11.3135 45.7321,-4.1127 57.0441,16.0802 6.9777,12.4488 6.9069,26.9382 1.1013,38.8725 -9.0903,25.2728 7.115,54.1397 33.4205,59.5529 z"
   id="path961"
   style="clip-rule:evenodd;fill:#007b55;fill-opacity:1;fill-rule:evenodd"
   inkscape:connector-curvature="0" />
		</g>
		<g
   id="g967">
			<path
   class="st3"
   d="m 261.725,249.3091 c 39.6896,2.8674 52.1807,59.2417 16.4286,78.278 -20.1862,11.3119 -45.7307,4.1124 -57.0414,-16.0802 -6.9589,-12.4222 -6.9052,-26.882 -1.1365,-38.7953 9.1388,-25.278 -7.0185,-54.1871 -33.3454,-59.6298 -13.197,-1.2823 -25.5807,-8.792 -32.5512,-21.2351 -11.3116,-20.1941 -4.1116,-45.7359 16.08,-57.0432 20.1921,-11.3135 45.7321,-4.1127 57.0441,16.0802 6.9777,12.4488 6.9069,26.9382 1.1013,38.8725 -9.0902,25.2728 7.1151,54.1397 33.4205,59.5529 z"
   id="path965"
   style="clip-rule:evenodd;fill:#007b55;fill-opacity:1;fill-rule:evenodd"
   inkscape:connector-curvature="0" />
		</g>
		<g
   id="g971">
			<path
   class="st3"
   d="m 332.7263,131.1989 c 39.6895,2.8674 52.1806,59.2417 16.4286,78.278 -20.1861,11.3118 -45.7307,4.1124 -57.0414,-16.0802 -6.9589,-12.4222 -6.9052,-26.882 -1.1365,-38.7953 9.1388,-25.278 -7.0185,-54.1871 -33.3454,-59.6298 -13.197,-1.2823 -25.5807,-8.792 -32.5512,-21.2351 -11.3116,-20.1941 -4.1116,-45.7359 16.08,-57.0432 20.1921,-11.3135 45.7321,-4.1127 57.0441,16.0802 6.9777,12.4488 6.9069,26.9382 1.1013,38.8725 -9.0902,25.2728 7.1151,54.1397 33.4205,59.5529 z"
   id="path969"
   style="clip-rule:evenodd;fill:#007b55;fill-opacity:1;fill-rule:evenodd"
   inkscape:connector-curvature="0" />
		</g>
	</g>
</g>
<path
   style="opacity:1;fill:url(#linearGradient2781);fill-opacity:1;stroke:none;stroke-width:1;stroke-opacity:1"
   d="m 253.11909,332.78589 c -14.22691,-1.97992 -26.25766,-10.41096 -32.65539,-22.88465 -3.00662,-5.862 -4.45491,-11.9997 -4.45491,-18.87936 0,-5.26379 0.56881,-8.7074 2.20193,-13.3306 2.8436,-8.04994 3.2006,-9.1614 3.71083,-11.55319 0.81734,-3.83145 0.74176,-12.99213 -0.14081,-17.06438 -0.94346,-4.35328 -1.93824,-7.18213 -4.05187,-11.52236 -2.41068,-4.95019 -4.8703,-8.41108 -8.74889,-12.31043 -6.74832,-6.78444 -15.40587,-11.33417 -23.69885,-12.45428 -4.36116,-0.58905 -10.33256,-2.44579 -14.28706,-4.4424 -2.21037,-1.11601 -6.2259,-3.83626 -8.52308,-5.77381 -5.45012,-4.59688 -9.79723,-11.0136 -12.22505,-18.04526 -1.72977,-5.0099 -2.13709,-7.60457 -2.13918,-13.62684 -0.002,-7.14978 0.37962,-8.88521 4.25156,-19.31015 1.8146,-4.88569 2.69954,-12.11599 2.14079,-17.49095 -1.49552,-14.38616 -8.92297,-27.06953 -20.31402,-34.688892 -3.2573,-2.178781 -8.07604,-4.494443 -9.35263,-4.494443 -1.40256,0 -5.56576,1.202954 -8.80788,2.545032 -13.33325,5.519313 -23.847833,18.282973 -26.983333,32.755073 -1.881075,8.68223 -1.217543,17.72797 1.846372,25.17107 2.251885,5.47045 3.149829,9.85808 3.151748,15.4004 0.0021,5.86057 -1.126471,10.74446 -3.988403,17.26092 -5.656285,12.87904 -4.080717,28.94077 4.064237,41.43185 4.590731,7.04033 10.682349,12.55092 17.847609,16.14527 4.80791,2.41181 7.77184,3.29246 14.72263,4.37443 7.82267,1.21769 14.74816,4.82309 20.70654,10.77978 6.04298,6.04127 9.94617,13.38665 11.87643,22.35014 0.53193,2.47008 0.65056,4.0098 0.66533,8.63461 0.0199,6.22359 -0.44184,9.16237 -2.25169,14.33203 -4.50965,12.88142 -16.10845,22.65814 -30.69604,25.87399 -4.1949,0.92476 -12.28219,0.9212 -16.56019,-0.007 -12.892454,-2.79815 -23.593569,-11.03252 -29.142211,-22.42459 -3.032904,-6.22694 -4.233695,-11.3751 -4.249402,-18.21849 -0.0149,-6.48999 0.778537,-10.57529 3.221868,-16.5892 2.574667,-6.33716 3.256068,-9.9194 3.240062,-17.03355 -0.01321,-5.86848 -0.502821,-9.00751 -2.217901,-14.21931 -1.227142,-3.72905 -4.054539,-9.26699 -6.418502,-12.57174 -2.542866,-3.55474 -7.195353,-8.23155 -10.532412,-10.58736 -4.663753,-3.29241 -11.23516,-6.24897 -15.90705,-7.15681 -0.896113,-0.17413 -2.895704,-0.54156 -4.443535,-0.81651 -3.936044,-0.69918 -7.578007,-1.96239 -11.553189,-4.0072 -12.204638,-6.27799 -20.396472,-18.0159 -22.243323,-31.87199 -0.4304879,-3.22975 -0.2010205,-9.71244 0.463191,-13.08563 1.620414,-8.22924 5.576082,-15.56503 11.68945,-21.67806 6.619101,-6.61874 14.308571,-10.58583 23.20721,-11.97286 5.625716,-0.87688 6.576046,-1.08328 9.588235,-2.08245 16.533873,-5.48444 28.774244,-20.70772 30.937208,-38.476427 0.688241,-5.653906 -0.07107,-13.611097 -1.744206,-18.278479 -0.315639,-0.880501 -1.000698,-2.781315 -1.522355,-4.224033 -1.9557,-5.408771 -2.742309,-12.146469 -2.101528,-18.000645 1.28899,-11.776188 6.686243,-22.39138 14.80155,-29.111342 5.55212,-4.59749 10.72559,-7.219661 17.78384,-9.013725 2.90458,-0.7382881 3.55959,-0.793474 9.34448,-0.7872964 5.79739,0.00619 6.44217,0.06231 9.47026,0.8242504 14.7982,3.723596 25.78579,13.899578 30.31746,28.078061 3.21299,10.052639 2.41442,21.198013 -2.28593,31.903811 -1.75412,3.995318 -2.21916,6.843283 -2.23537,13.689908 -0.0162,6.824012 0.39551,9.429882 2.40284,15.209839 5.4714,15.754488 19.45123,27.786678 34.82609,29.974188 10.29598,1.4649 17.78391,5.21307 25.11429,12.57125 4.47941,4.49639 8.01668,10.21266 10.01844,16.18989 3.06425,9.14981 2.74289,20.02968 -0.84337,28.55236 -3.92729,9.33315 -4.77241,18.31956 -2.60484,27.69803 2.63176,11.38688 9.84053,22.02609 19.20227,28.34005 2.54576,1.71698 7.8667,4.36228 10.60087,5.27021 l 1.86193,0.6183 2.72973,-0.90862 c 13.70149,-4.56066 24.60195,-15.89551 29.05421,-30.21202 1.49614,-4.81093 2.02685,-8.27845 2.03988,-13.32805 0.0165,-6.39574 -0.4816,-8.8582 -3.59529,-17.77414 -3.26143,-9.33897 -2.8234,-20.673 1.14488,-29.62356 3.1169,-7.03025 3.66489,-9.57718 3.66489,-17.03355 0,-4.38943 -0.11686,-5.88221 -0.66093,-8.44271 -2.08304,-9.80314 -6.19534,-17.46218 -13.04963,-24.30452 -6.97929,-6.96713 -14.26117,-10.775329 -23.71853,-12.404071 -4.66881,-0.804058 -7.47075,-1.581389 -10.67638,-2.961903 -5.64641,-2.431639 -9.63259,-5.207411 -13.91118,-9.68703 -5.53458,-5.794624 -9.10112,-12.554116 -10.85137,-20.566081 -0.77874,-3.564781 -0.77849,-12.701106 4.4e-4,-16.280965 4.0395,-18.564894 18.62017,-31.632457 37.36402,-33.48657 7.62435,-0.754189 15.68634,0.877678 22.98738,4.652989 11.26726,5.826218 19.26376,16.69128 21.77398,29.584917 0.70106,3.600946 0.70527,10.833906 0.008,14.608931 -0.61178,3.314622 -1.66471,6.740869 -3.01612,9.814541 -3.64773,8.296423 -4.05354,20.232076 -1.00739,29.628783 5.49641,16.955209 19.51535,29.273579 35.93762,31.578189 6.47088,0.90809 11.83956,2.88063 16.69193,6.13288 9.47382,6.34975 15.66159,16.01192 18.06042,28.20136 0.7932,4.03059 0.71834,12.31749 -0.14771,16.34877 -1.79003,8.33229 -5.04975,14.38404 -10.82305,20.09327 -3.54221,3.50289 -6.65485,5.73694 -11.10777,7.97241 -4.83439,2.42697 -8.18876,3.38108 -16.63194,4.73078 -3.77662,0.60371 -6.84497,1.6294 -11.10884,3.71344 -4.61805,2.25717 -8.16263,4.79298 -11.8406,8.47083 -6.50181,6.5016 -10.96225,14.74505 -12.95508,23.94259 -0.5416,2.49965 -0.6538,3.97938 -0.66597,8.78272 -0.0192,7.57757 0.1931,8.62128 3.66303,18.00956 2.87256,7.77205 2.98278,16.90264 0.3016,24.98377 -1.1738,3.53785 -3.63887,8.62214 -5.65427,11.66214 -2.1846,3.29521 -7.44488,8.50552 -10.88376,10.78037 -3.24559,2.14697 -7.83813,4.43649 -10.99196,5.47983 -5.29956,1.75321 -12.85078,2.59701 -17.4779,1.95308 z"
   id="path2741"
   inkscape:connector-curvature="0" /><text
   xml:space="preserve"
   style="font-style:normal;font-variant:normal;font-weight:normal;font-stretch:normal;font-size:261.36743164px;line-height:1.25;font-family:Norasi;-inkscape-font-specification:Norasi;letter-spacing:2.7345562px;word-spacing:0px;fill:#1d513a;fill-opacity:1;stroke:none;stroke-width:0.44987008"
   x="434.73224"
   y="232.47523"
   id="text1232"
   transform="scale(0.9595219,1.0421857)"><tspan
     sodipodi:role="line"
     x="434.73224"
     y="232.47523"
     id="tspan1230"
     style="font-style:normal;font-variant:normal;font-weight:normal;font-stretch:normal;font-size:261.36743164px;line-height:0;font-family:Keraleeyam;-inkscape-font-specification:Keraleeyam;letter-spacing:2.7345562px;word-spacing:0px;fill:#1d603a;fill-opacity:1;stroke-width:0.44987008"><tspan
       x="434.73224"
       y="232.47523"
       style="font-style:normal;font-variant:normal;font-weight:normal;font-stretch:normal;font-size:261.36743164px;line-height:0;font-family:Keraleeyam;-inkscape-font-specification:Keraleeyam;letter-spacing:2.7345562px;word-spacing:0px;fill:#1d603a;fill-opacity:1;stroke-width:0.44987008"
       id="tspan1226"
       dx="0"
       dy="0">Pythonlabbet</tspan></tspan></text>

<flowRoot
   xml:space="preserve"
   id="flowRoot848"
   style="font-style:normal;font-weight:normal;font-size:40px;line-height:1.25;font-family:sans-serif;letter-spacing:0px;word-spacing:0px;fill:#000000;fill-opacity:1;stroke:none"><flowRegion
     id="flowRegion850"><rect
       id="rect852"
       width="15.081856"
       height="40.218281"
       x="499.37701"
       y="99.564583" /></flowRegion><flowPara
     id="flowPara854" /></flowRoot></svg>