<?xml version="1.0" encoding="UTF-8" standalone="no"?>
<svg
   xmlns:dc="http://purl.org/dc/elements/1.1/"
   xmlns:cc="http://creativecommons.org/ns#"
   xmlns:rdf="http://www.w3.org/1999/02/22-rdf-syntax-ns#"
   xmlns:svg="http://www.w3.org/2000/svg"
   xmlns="http://www.w3.org/2000/svg"
   viewBox="0 0 4000 4000"
   height="4000"
   width="4000"
   xml:space="preserve"
   id="svg2"
   version="1.1"><metadata
     id="metadata8"><rdf:RDF><cc:Work
         rdf:about=""><dc:format>image/svg+xml</dc:format><dc:type
           rdf:resource="http://purl.org/dc/dcmitype/StillImage" /></cc:Work></rdf:RDF></metadata><defs
     id="defs6" /><g
     transform="matrix(1.3333333,0,0,-1.3333333,0,4000)"
     id="g10"><g
       transform="scale(0.1)"
       id="g12"><g
         transform="scale(1.84049)"
         id="g14"><path
           id="path16"
           style="fill:#ffffff;fill-opacity:1;fill-rule:nonzero;stroke:none"
           d="M 16300,0 H 0 V 16300 H 16300 V 0" /></g><g
         transform="scale(1.27301)"
         id="g18"><path
           id="path20"
           style="fill:none;stroke:#414042;stroke-width:392.77099609;stroke-linecap:round;stroke-linejoin:round;stroke-miterlimit:10;stroke-dasharray:none;stroke-opacity:1"
           d="m 11783.1,12765.1 v 0 c -759.2,0 -1374.7,615.4 -1374.7,1374.7 v 785.5 c 0,759.2 615.5,1374.7 1374.7,1374.7 v 0 c 759.3,0 1374.7,-615.5 1374.7,-1374.7 v -785.5 c 0,-759.3 -615.4,-1374.7 -1374.7,-1374.7 z" /></g><g
         transform="scale(1.33436)"
         id="g22"><path
           id="path24"
           style="fill:none;stroke:#414042;stroke-width:374.7130127;stroke-linecap:round;stroke-linejoin:round;stroke-miterlimit:10;stroke-dasharray:none;stroke-opacity:1"
           d="M 16300,6932.18 H 6182.76 v 749.43 H 16300 Z" /></g><g
         transform="scale(1.25104)"
         id="g26"><path
           id="path28"
           style="fill:none;stroke:#414042;stroke-width:399.66699219;stroke-linecap:round;stroke-linejoin:round;stroke-miterlimit:10;stroke-dasharray:none;stroke-opacity:1"
           d="m 15495.1,10007.6 -871.3,1454.8 c -271.8,451.7 -759.4,727.4 -1282.9,727.4 -475.6,0 -919.3,-223.8 -1199,-599.5 l -151.9,-199.8 -151.9,199.8 c -279.7,375.7 -723.4,599.5 -1199,599.5 -55,0 -109.2,-4.7 -163.3,-10.7 L 8393,15786.7 c -220.78,382.3 -709.61,513.3 -1091.93,292.6 -382.33,-220.8 -513.29,-709.6 -292.56,-1091.9 l 2397.96,-4153.5 -14.31,-2640.74 5243.64,11.99 c 831.3,111.91 1310.9,1051.13 859.3,1802.45 z" /></g></g></g></svg>