<?xml version="1.0" encoding="utf-8"?>
<!-- Svg Vector Icons : http://www.onlinewebfonts.com/icon -->
<!DOCTYPE svg PUBLIC "-//W3C//DTD SVG 1.1//EN" "http://www.w3.org/Graphics/SVG/1.1/DTD/svg11.dtd">
<svg version="1.1" xmlns="http://www.w3.org/2000/svg" xmlns:xlink="http://www.w3.org/1999/xlink" x="0px" y="0px" viewBox="0 0 1000 1000" enable-background="new 0 0 1000 1000" xml:space="preserve">
<metadata> Svg Vector Icons : http://www.onlinewebfonts.com/icon </metadata>
<g><g transform="translate(0.000000,512.000000) scale(0.100000,-0.100000)"><path d="M4134.7,5000.7c-235.5-40.2-465.2-166.5-639.4-356.1c-202.9-220.2-285.2-419.3-302.5-733.2l-11.5-201l-1276.9-5.7l-1278.8-3.8v-191.4v-191.4H5000h4374.4v191.4v191.4l-1324.8,3.8l-1326.7,5.7l-13.4,201c-26.8,438.4-258.4,800.2-631.7,982.1c-239.3,116.8-342.7,128.3-1139.1,126.4C4552,5017.9,4190.2,5010.2,4134.7,5000.7z M5894,4537.4c166.6-82.3,271.9-187.6,354.2-354.2c44-90,53.6-139.8,59.3-294.8l7.7-187.6l-1365,3.8l-1366.9,5.7l-5.7,74.7c-23,266.1,114.9,551.4,336.9,704.5c181.9,126.3,216.3,130.2,1068.2,124.4l765.7-3.8L5894,4537.4z"/><path d="M1448.8,2690c0-28.7,134-1202.3,296.7-2607.4c162.7-1405.2,331.2-2856.3,373.3-3225.8c42.1-367.6,84.2-735.1,95.7-813.6c40.2-291,233.6-566.7,492-704.5C2934.4-4781.9,2890.3-4780,5000-4780c2082.9,0,2054.2,0,2282,109.1c245,116.8,463.3,411.6,505.4,677.7c15.3,97.6,783,6692.8,783,6727.2c0,5.7-90,9.6-201,9.6c-113,0-201-7.7-201-17.2c0-11.5-164.6-1430.1-363.7-3154.9c-201-1724.9-373.3-3218.1-382.9-3317.7c-34.5-319.7-107.2-453.7-308.2-564.7l-103.4-57.4l-1960.4-5.7c-2259-5.7-2098.2-17.2-2280,166.6c-86.1,86.1-116.8,132.1-139.7,214.4c-17.2,57.4-199.1,1577.5-405.9,3377c-204.8,1801.5-379,3292.8-384.8,3317.6c-7.7,40.2-17.2,42.1-199.1,42.1h-191.4V2690z"/><path d="M3095.2,2376c1.9-109.1,421.2-6262,426.9-6269.7c5.7-3.8,91.9-1.9,193.4,5.7l183.8,13.4v80.4c0,44-90,1435.8-201,3091.8c-111,1656-201,3032.4-201,3057.3c0,44-3.8,44-201,44C3148.8,2399,3095.2,2393.3,3095.2,2376z"/><path d="M4818.1-750.2v-3149.2h191.4H5201v3149.2V2399h-191.4h-191.4V-750.2z"/><path d="M6560.2,2360.7c0-19.1-107.2-1387.9-239.3-3038.2c-132.1-1650.2-241.2-3043.9-243.1-3097.5l-5.7-95.7l189.5-15.3c103.4-7.7,191.4-13.4,193.3-9.6c5.7,5.7,507.3,6225.6,507.3,6281.1c0,7.7-90,13.4-201,13.4C6573.6,2399,6560.2,2397.1,6560.2,2360.7z"/></g></g>
</svg>